<svg width="225" height="275" viewBox="0 0 225 275" fill="none" xmlns="http://www.w3.org/2000/svg">
<path d="M75.8545 250.357L67.8053 257.199C67.0414 257.848 67.1303 259.058 67.9804 259.59C99.5909 279.355 129.71 274.349 146.194 267.07C147.732 266.391 146.99 264.497 145.334 264.793C109.17 271.25 88.6867 258.711 82.2316 250.599C81.9336 250.224 81.4917 250 81.013 250H76.826C76.4701 250 76.1257 250.127 75.8545 250.357Z" fill="url(#paint0_linear_1_6)"/>
<path d="M185.315 239.721C189.245 212.11 174.29 192.873 164.53 185.148C163.59 184.404 162.27 185.108 162.24 186.305C161.921 198.766 159.518 204.601 158.275 206C148.775 219.5 135.775 227 119.775 221.5C103.775 216 93.7746 204 96.2746 183.5C98.2198 167.549 114.827 160.081 123.556 158.15C124.01 158.05 124.407 157.76 124.572 157.325C125.249 155.541 124.853 154.282 124.44 153.699C124.341 153.559 124.195 153.462 124.04 153.389L86.4792 135.597C86.3436 135.533 86.2161 135.446 86.1038 135.346C81.383 131.161 77.5921 133.688 76.2746 135.5C63.0746 150.3 57.108 171.667 55.7746 180.5C53.7746 239.7 93.608 260.167 113.775 263C158.196 266.57 179.742 249.46 185.14 240.234C185.233 240.075 185.289 239.903 185.315 239.721Z" fill="url(#paint1_linear_1_6)"/>
<path d="M129.775 78C53.88 66.4584 17.5615 27.5729 5.17709 2.72097C4.40355 1.16868 1.27464 1.75542 1.27464 3.48977V10.5C-1.52536 50.9 17.7746 80.6667 27.7746 90.5C46.9746 113.3 88.4413 134 106.775 141.5C137.175 156.3 156.441 171 162.275 176.5C186.431 194.355 191.156 218.618 190.394 232.329C190.311 233.832 192.27 234.759 193.242 233.609C210.281 213.443 219.96 186.227 222.775 174.5C231.175 114.1 164.275 85 129.775 78Z" fill="url(#paint2_linear_1_6)"/>
<path d="M75.8545 250.357L67.8053 257.199C67.0414 257.848 67.1303 259.058 67.9804 259.59C99.5909 279.355 129.71 274.349 146.194 267.07C147.732 266.391 146.99 264.497 145.334 264.793C109.17 271.25 88.6867 258.711 82.2316 250.599C81.9336 250.224 81.4917 250 81.013 250H76.826C76.4701 250 76.1257 250.127 75.8545 250.357Z" stroke="white" stroke-width="2"/>
<path d="M185.315 239.721C189.245 212.11 174.29 192.873 164.53 185.148C163.59 184.404 162.27 185.108 162.24 186.305C161.921 198.766 159.518 204.601 158.275 206C148.775 219.5 135.775 227 119.775 221.5C103.775 216 93.7746 204 96.2746 183.5C98.2198 167.549 114.827 160.081 123.556 158.15C124.01 158.05 124.407 157.76 124.572 157.325C125.249 155.541 124.853 154.282 124.44 153.699C124.341 153.559 124.195 153.462 124.04 153.389L86.4792 135.597C86.3436 135.533 86.2161 135.446 86.1038 135.346C81.383 131.161 77.5921 133.688 76.2746 135.5C63.0746 150.3 57.108 171.667 55.7746 180.5C53.7746 239.7 93.608 260.167 113.775 263C158.196 266.57 179.742 249.46 185.14 240.234C185.233 240.075 185.289 239.903 185.315 239.721Z" stroke="white" stroke-width="2"/>
<path d="M129.775 78C53.88 66.4584 17.5615 27.5729 5.17709 2.72097C4.40355 1.16868 1.27464 1.75542 1.27464 3.48977V10.5C-1.52536 50.9 17.7746 80.6667 27.7746 90.5C46.9746 113.3 88.4413 134 106.775 141.5C137.175 156.3 156.441 171 162.275 176.5C186.431 194.355 191.156 218.618 190.394 232.329C190.311 233.832 192.27 234.759 193.242 233.609C210.281 213.443 219.96 186.227 222.775 174.5C231.175 114.1 164.275 85 129.775 78Z" stroke="white" stroke-width="2"/>
<defs>
<linearGradient id="paint0_linear_1_6" x1="146.301" y1="89.5072" x2="112.249" y2="273.493" gradientUnits="userSpaceOnUse">
<stop stop-color="#580292"/>
<stop offset="1" stop-color="#3B0062"/>
</linearGradient>
<linearGradient id="paint1_linear_1_6" x1="146.301" y1="89.5072" x2="112.249" y2="273.493" gradientUnits="userSpaceOnUse">
<stop stop-color="#580292"/>
<stop offset="1" stop-color="#3B0062"/>
</linearGradient>
<linearGradient id="paint2_linear_1_6" x1="146.301" y1="89.5072" x2="112.249" y2="273.493" gradientUnits="userSpaceOnUse">
<stop stop-color="#580292"/>
<stop offset="1" stop-color="#3B0062"/>
</linearGradient>
</defs>
</svg>
