<svg width="178" height="69" viewBox="0 0 178 69" fill="none" xmlns="http://www.w3.org/2000/svg">
<path d="M11.52 0.799995V29.792H16.992V0.799995H26.112V68H16.992V38.72H11.52V68H2.4V9.72799H0.96L1.92 0.799995H11.52ZM55.38 59.456C55.38 62.144 54.548 64.32 52.884 65.984C51.22 67.584 49.044 68.384 46.356 68.384H39.444C36.756 68.384 34.58 67.584 32.916 65.984C31.252 64.32 30.42 62.144 30.42 59.456V9.344C30.42 6.656 31.252 4.512 32.916 2.912C34.58 1.248 36.756 0.415995 39.444 0.415995H46.356C49.044 0.415995 51.22 1.248 52.884 2.912C54.548 4.512 55.38 6.656 55.38 9.344V59.456ZM40.02 9.344C39.7 9.344 39.54 9.504 39.54 9.824V58.976C39.54 59.296 39.7 59.456 40.02 59.456H45.78C46.1 59.456 46.26 59.296 46.26 58.976V9.824C46.26 9.504 46.1 9.344 45.78 9.344H40.02ZM58.2413 9.72799L59.2013 0.799995H74.3693C77.0573 0.799995 79.2333 1.632 80.8973 3.296C82.5613 4.896 83.3933 7.04 83.3933 9.72799V39.776C83.3933 42.464 82.3693 44.64 80.3213 46.304C78.3373 47.904 76.0013 48.704 73.3133 48.704H68.8013V68H59.6813V9.72799H58.2413ZM73.7933 9.72799H68.8013V39.776H73.7933C74.1133 39.776 74.2733 39.616 74.2733 39.296V10.208C74.2733 9.88799 74.1133 9.72799 73.7933 9.72799ZM109.025 59.072L108.257 68H87.2325V9.72799H85.7925L86.7525 0.799995H109.025L108.065 9.72799H96.3525V29.888H107.105L106.145 38.816H96.3525V59.072H109.025ZM151.868 68H130.076V43.136C130.076 40.448 130.876 38.304 132.476 36.704C134.14 35.04 136.22 34.208 138.716 34.208H142.268C142.588 34.208 142.748 34.048 142.748 33.728V19.808C142.748 19.488 142.588 19.328 142.268 19.328H130.076V10.4H142.844C145.532 10.4 147.708 11.232 149.372 12.896C151.036 14.496 151.868 16.64 151.868 19.328V34.208C151.868 36.896 151.036 39.072 149.372 40.736C147.708 42.336 145.532 43.136 142.844 43.136H139.676C139.356 43.136 139.196 43.296 139.196 43.616V59.072H151.868V68ZM155.67 68V59.072H167.862C168.182 59.072 168.342 58.912 168.342 58.592V39.68C168.342 39.36 168.182 39.2 167.862 39.2H155.67V10.4H177.462V19.328H164.79V30.272H168.438C171.126 30.272 173.302 31.104 174.966 32.768C176.63 34.368 177.462 36.512 177.462 39.2V59.072C177.462 61.76 176.63 63.936 174.966 65.6C173.302 67.2 171.126 68 168.438 68H155.67Z" fill="white"/>
</svg>
